<svg width="140" height="140" viewBox="0 0 140 140" fill="none" xmlns="http://www.w3.org/2000/svg">
<path d="M40.8108 77H31.1892C29.98 77 29 76.02 29 74.8108V65.1892C29 63.98 29.98 63 31.1892 63H40.8108C42.02 63 43 63.98 43 65.1892V74.8108C43 76.02 42.02 77 40.8108 77ZM33.3785 72.6215H38.6215V67.3785H33.3785V72.6215Z" fill="#005C96"/>
<mask id="path-2-inside-1" fill="white">
<rect x="48" y="63" width="63" height="14" rx="2"/>
</mask>
<rect x="48" y="63" width="63" height="14" rx="2" stroke="#0F5D98" stroke-width="10" mask="url(#path-2-inside-1)"/>
<path fill-rule="evenodd" clip-rule="evenodd" d="M35 53C34.4477 53 34 52.5523 34 52L34 50C34 49.4477 34.4477 49 35 49L105 49C105.552 49 106 49.4477 106 50L106 52C106 52.5523 105.552 53 105 53L96 53C95.4477 53 95 53.4477 95 54L95 57C95 57.5523 95.4477 58 96 58L109 58C110.105 58 111 57.1046 111 56L111 46C111 44.8954 110.105 44 109 44L31 44C29.8954 44 29 44.8954 29 46L29 56C29 57.1046 29.8954 58 31 58L81 58C81.5523 58 82 57.5523 82 57L82 54C82 53.4477 81.5523 53 81 53L35 53Z" fill="#73BF45"/>
<path d="M40.8108 96H31.1892C29.98 96 29 95.02 29 93.8108V84.1892C29 82.98 29.98 82 31.1892 82H40.8108C42.02 82 43 82.98 43 84.1892V93.8108C43 95.02 42.02 96 40.8108 96ZM33.3785 91.6215H38.6215V86.3785H33.3785V91.6215Z" fill="#005C96"/>
<mask id="path-5-inside-2" fill="white">
<rect x="48" y="82" width="63" height="14" rx="2"/>
</mask>
<rect x="48" y="82" width="63" height="14" rx="2" stroke="#0F5D98" stroke-width="10" mask="url(#path-5-inside-2)"/>
<rect x="17.5" y="34.5" width="105" height="71" rx="8.5" stroke="#73BF45" stroke-width="7"/>
<rect x="86" y="53" width="5" height="5" rx="1" fill="#73BF45"/>
</svg>
