<svg width="140" height="140" viewBox="0 0 140 140" fill="none" xmlns="http://www.w3.org/2000/svg">
<path d="M107.87 49.3308C107.311 49.3308 106.751 49.1172 106.324 48.6908L102.889 45.2549C102.034 44.4013 102.034 43.0161 102.889 42.1616C103.742 41.3071 105.127 41.3071 105.982 42.1616L107.87 44.0501L113.194 38.7265C114.048 37.8721 115.433 37.8721 116.287 38.7257C117.142 39.5802 117.142 40.9653 116.288 41.8198L109.418 48.69C108.99 49.1172 108.43 49.3308 107.87 49.3308Z" fill="#005C96"/>
<path d="M77.2359 117.768H66.1514C64.9432 117.768 63.9639 116.789 63.9639 115.58C63.9639 114.373 64.9432 113.393 66.1514 113.393H77.2359C78.4433 113.393 79.4234 114.373 79.4234 115.58C79.4234 116.789 78.4433 117.768 77.2359 117.768Z" fill="#73BE45"/>
<path d="M94.9965 89.0314C94.8547 89.0314 94.7103 89.0185 94.5701 88.9895C94.43 88.9613 94.2924 88.9177 94.1591 88.863C94.0275 88.8083 93.9002 88.7408 93.7823 88.6614C93.6618 88.5827 93.5507 88.4913 93.4499 88.3905C93.3491 88.2897 93.2576 88.1786 93.1765 88.0581C93.0978 87.9402 93.0303 87.8129 92.9756 87.6813C92.921 87.548 92.8791 87.4104 92.8509 87.2703C92.8218 87.1301 92.809 86.9857 92.809 86.8439C92.809 86.702 92.8218 86.5576 92.8509 86.4175C92.8791 86.2773 92.921 86.1398 92.9756 86.0082C93.0303 85.8749 93.0978 85.7475 93.1765 85.6296C93.2576 85.5091 93.3491 85.3981 93.4499 85.2972C93.5507 85.1964 93.6618 85.105 93.7823 85.0264C93.9002 84.9469 94.0275 84.8794 94.1591 84.8247C94.2924 84.77 94.43 84.7264 94.5701 84.6982C94.8495 84.641 95.1409 84.6435 95.4229 84.6982C95.563 84.7264 95.7006 84.77 95.8322 84.8247C95.9655 84.8794 96.0928 84.9469 96.2107 85.0264C96.3312 85.105 96.4423 85.1964 96.5431 85.2972C96.644 85.3981 96.7354 85.5091 96.814 85.6296C96.8935 85.7475 96.961 85.8749 97.0157 86.0082C97.0704 86.1398 97.1122 86.2773 97.1404 86.4175C97.1686 86.5576 97.184 86.702 97.184 86.8439C97.184 86.9857 97.1686 87.1301 97.1404 87.2703C97.1122 87.4104 97.0704 87.548 97.0157 87.6813C96.961 87.8129 96.8935 87.9402 96.814 88.0581C96.7354 88.1786 96.644 88.2897 96.5431 88.3905C96.4423 88.4913 96.3312 88.5827 96.2107 88.6614C96.0928 88.7408 95.9655 88.8083 95.8322 88.863C95.7006 88.9177 95.563 88.9613 95.4229 88.9895C95.2828 89.0185 95.1384 89.0314 94.9965 89.0314Z" fill="#73BE45"/>
<path d="M68.3612 64.9158H58.7473C57.539 64.9158 56.5598 63.9365 56.5598 62.7283V53.1144C56.5598 51.9061 57.539 50.9269 58.7473 50.9269H68.3612C69.5694 50.9269 70.5487 51.9061 70.5487 53.1144V62.7283C70.5487 63.9365 69.5694 64.9158 68.3612 64.9158ZM60.9339 60.5408H66.1737V55.3019H60.9339V60.5408Z" fill="#005C96"/>
<path d="M86.8498 64.9158H77.2359C76.0277 64.9158 75.0484 63.9365 75.0484 62.7283V53.1144C75.0484 51.9061 76.0277 50.9269 77.2359 50.9269H86.8498C88.0581 50.9269 89.0373 51.9061 89.0373 53.1144V62.7283C89.0373 63.9365 88.0581 64.9158 86.8498 64.9158ZM79.4234 60.5408H84.6623V55.3019H79.4234V60.5408Z" fill="#005C96"/>
<path d="M68.3612 84.2957H58.7473C57.539 84.2957 56.5598 83.3164 56.5598 82.1082V72.4943C56.5598 71.286 57.539 70.3068 58.7473 70.3068H68.3612C69.5694 70.3068 70.5487 71.286 70.5487 72.4943V82.1082C70.5487 83.3164 69.5694 84.2957 68.3612 84.2957ZM60.9339 79.9207H66.1737V74.6818H60.9339V79.9207Z" fill="#005C96"/>
<path d="M86.8498 84.2957H77.2359C76.0277 84.2957 75.0484 83.3164 75.0484 82.1082V72.4943C75.0484 71.286 76.0277 70.3068 77.2359 70.3068H86.8498C88.0581 70.3068 89.0373 71.286 89.0373 72.4943V82.1082C89.0373 83.3164 88.0581 84.2957 86.8498 84.2957ZM79.4234 79.9207H84.6623V74.6818H79.4234V79.9207Z" fill="#005C96"/>
<path d="M108.965 27.1148C108.334 27.1148 107.71 27.1507 107.097 27.2216V21.8109C107.097 17.5043 103.593 14 99.2853 14H46.3109C42.0034 14 38.5 17.5043 38.5 21.8109V118.188C38.5 122.496 42.0034 126 46.3109 126H99.2853C103.593 126 107.097 122.496 107.097 118.188V59.3189C107.71 59.3899 108.333 59.4266 108.965 59.4266C117.873 59.4266 125.12 52.1788 125.12 43.2707C125.12 34.3626 117.873 27.1148 108.965 27.1148ZM42.875 21.8109C42.875 19.9165 44.4165 18.375 46.3109 18.375H99.2853C101.181 18.375 102.722 19.9165 102.722 21.8109V28.2735C102.722 28.3051 102.723 28.3367 102.724 28.3683C97.4182 30.5985 93.5448 35.5819 92.9031 41.5207H50.6005C49.3922 41.5207 48.413 42.4999 48.413 43.7082V105.162H42.875V30.461H89.3501C90.5583 30.461 91.5376 29.4817 91.5376 28.2735C91.5376 27.0652 90.5583 26.086 89.3501 26.086H42.875V21.8109ZM102.722 118.189C102.722 120.084 101.181 121.625 99.2853 121.625H46.3109C44.4165 121.625 42.875 120.084 42.875 118.189V109.537H102.722V118.189ZM77.3188 105.162H68.2774V94.1874H77.3188V105.162ZM102.722 105.162H97.1841V96.7611C97.1841 95.5529 96.2048 94.5736 94.9966 94.5736C93.7883 94.5736 92.8091 95.5529 92.8091 96.7611V105.162H89.0373V91.9999C89.0373 90.7925 88.0581 89.8124 86.8498 89.8124C85.6416 89.8124 84.6623 90.7925 84.6623 91.9999V105.162H81.6938V91.9999C81.6938 90.7925 80.7146 89.8124 79.5063 89.8124H66.0899C64.8816 89.8124 63.9024 90.7925 63.9024 91.9999V105.162H60.9347V91.9999C60.9347 90.7925 59.9555 89.8124 58.7472 89.8124C57.539 89.8124 56.5597 90.7925 56.5597 91.9999V105.162H52.788V45.8957H92.8091V77.3018C92.8091 78.51 93.7883 79.4893 94.9966 79.4893C96.2048 79.4893 97.1841 78.51 97.1841 77.3018V54.315C98.7281 55.9608 100.611 57.2835 102.722 58.1713V105.162ZM108.965 55.0516C102.469 55.0516 97.1841 49.7665 97.1841 43.2707C97.1841 36.7748 102.469 31.4898 108.965 31.4898C115.461 31.4898 120.746 36.7748 120.746 43.2707C120.746 49.7665 115.461 55.0516 108.965 55.0516Z" fill="#73BE45"/>
</svg>
