<svg width="140" height="140" viewBox="0 0 140 140" fill="none" xmlns="http://www.w3.org/2000/svg">
<rect x="17.5" y="34.5" width="105" height="71" rx="8.5" stroke="#73BF45" stroke-width="7"/>
<path d="M24 41L65.8914 75.761C68.8536 78.219 73.1464 78.219 76.1086 75.761L118 41" stroke="#73BF45" stroke-width="7" stroke-linecap="round"/>
<path fill-rule="evenodd" clip-rule="evenodd" d="M58.2118 69.3886L52.8109 64.907L21.4741 97.5773C20.136 98.9723 20.1822 101.188 21.5772 102.526C22.9722 103.864 25.1878 103.818 26.5259 102.423L58.2118 69.3886ZM83.6946 69.4662L105.461 92.409C106.791 93.8113 109.007 93.8696 110.409 92.5392C111.811 91.2088 111.87 88.9935 110.539 87.5911L89.0935 64.9863L83.6946 69.4662Z" fill="#73BF45"/>
<circle cx="122" cy="35" r="13.5" fill="white" stroke="#0F5D98" stroke-width="5"/>
<path d="M121.629 40.5495C121.629 41.3506 122.278 42 123.079 42C123.88 42 124.529 41.3506 124.529 40.5495V29.5C124.529 28.6716 123.858 28 123.029 28H122.087C121.782 28 121.485 28.0928 121.234 28.266L117.647 30.745C117.242 31.0251 117 31.4863 117 31.9789V32.1476C117 33.3556 118.355 34.068 119.35 33.3835L121.559 31.8641C121.566 31.859 121.575 31.8563 121.584 31.8563C121.609 31.8563 121.629 31.8761 121.629 31.9007V40.5495Z" fill="#0F5D98"/>
</svg>
