<svg width="38" height="26" viewBox="0 0 38 26" fill="none" xmlns="http://www.w3.org/2000/svg">
<path fill-rule="evenodd" clip-rule="evenodd" d="M36.4129 25.9671C36.4165 25.9662 36.42 25.9653 36.4235 25.9644C36.4397 25.9602 36.456 25.9568 36.4719 25.9519C36.4862 25.9476 36.5002 25.9424 36.5142 25.9373C36.5183 25.9358 36.5225 25.9343 36.5266 25.9328C36.5312 25.9311 36.5358 25.9295 36.5405 25.9279C36.5519 25.9239 36.5634 25.9199 36.5747 25.9151C36.5873 25.9099 36.5996 25.9039 36.6119 25.898C36.6162 25.896 36.6205 25.8939 36.6248 25.8919C36.6295 25.8896 36.6343 25.8874 36.639 25.8852C36.6505 25.8799 36.6621 25.8745 36.6733 25.8684C36.6845 25.8624 36.6953 25.8559 36.7061 25.8493C36.7106 25.8466 36.715 25.8438 36.7196 25.8411C36.7238 25.8386 36.7282 25.836 36.7325 25.8335C36.744 25.8267 36.7556 25.8199 36.7669 25.8124C36.779 25.8043 36.7905 25.7955 36.802 25.7868C36.8062 25.7836 36.8103 25.7805 36.8145 25.7774C36.8278 25.7674 36.8415 25.7581 36.8545 25.7474C36.8785 25.7277 36.9014 25.7066 36.9236 25.685C36.9276 25.6811 36.9319 25.6779 36.9359 25.6739C36.9401 25.6697 36.9436 25.6651 36.9477 25.6608C36.969 25.6388 36.9898 25.6163 37.0093 25.5926C37.0152 25.5854 37.0206 25.5782 37.026 25.5708C37.0311 25.5638 37.0362 25.5567 37.0414 25.5497C37.0447 25.5452 37.0481 25.5407 37.0515 25.5363C37.0593 25.526 37.067 25.5158 37.0742 25.5051C37.0851 25.4886 37.0948 25.4716 37.1049 25.4547C37.1076 25.4501 37.1103 25.4456 37.1131 25.441C37.119 25.4314 37.1249 25.4218 37.1302 25.4118C37.1394 25.3947 37.1471 25.3771 37.1553 25.3597C37.1625 25.3443 37.1703 25.329 37.1769 25.3132C37.1821 25.3008 37.1865 25.2882 37.1909 25.2756C37.1926 25.2709 37.1942 25.2661 37.1959 25.2614C37.1974 25.2572 37.199 25.253 37.2005 25.2488C37.2052 25.2361 37.2098 25.2235 37.2137 25.2106C37.219 25.1931 37.2229 25.1753 37.2273 25.1575C37.2287 25.1519 37.2302 25.1463 37.2316 25.1407C37.2347 25.1289 37.2378 25.1171 37.2401 25.1051C37.2434 25.0887 37.2456 25.0721 37.2479 25.0556C37.2485 25.0511 37.2491 25.0466 37.2497 25.0421C37.2518 25.0272 37.2546 25.0126 37.2561 24.9976C37.2598 24.9607 37.2618 24.9237 37.2618 24.8867V1.11228C37.2618 0.497858 36.7639 0 36.1495 0H1.11258C1.107 0 1.10152 0.000385312 1.09602 0.000771573C1.09187 0.00106287 1.08772 0.00135471 1.08351 0.00148223C1.0623 0.00207545 1.04124 0.00296574 1.02018 0.00474539C1.00343 0.00608013 0.986817 0.00800847 0.970207 0.010233C0.951224 0.0126059 0.932388 0.0154235 0.913554 0.0188345C0.895905 0.0219489 0.878407 0.0256562 0.861055 0.0296604C0.843407 0.0338129 0.825758 0.0382625 0.808258 0.0433048C0.790906 0.0481989 0.773852 0.053537 0.756945 0.0591726C0.739594 0.0651048 0.722241 0.0713345 0.705186 0.0781564C0.689021 0.0845335 0.673153 0.0910581 0.657433 0.0981767C0.639933 0.106037 0.622582 0.114491 0.605379 0.123241C0.590697 0.130805 0.57631 0.138516 0.562073 0.146673C0.54487 0.156461 0.527964 0.166842 0.511205 0.17752C0.497413 0.186418 0.483917 0.195613 0.470569 0.204956C0.454849 0.216079 0.439278 0.227647 0.424002 0.239808C0.410062 0.25093 0.396417 0.26235 0.382922 0.274066C0.369574 0.285782 0.356376 0.297498 0.343473 0.309956C0.328791 0.324044 0.314702 0.338726 0.300761 0.353557C0.297772 0.356737 0.2947 0.359754 0.291641 0.362759C0.287567 0.366761 0.283514 0.370742 0.279702 0.375062C0.277571 0.37743 0.275692 0.379924 0.273818 0.38241C0.272172 0.384594 0.270531 0.386773 0.268727 0.388854C0.254786 0.405019 0.241736 0.421926 0.228685 0.438981C0.226692 0.441597 0.224685 0.444214 0.222676 0.446833C0.215121 0.456684 0.207536 0.466574 0.200507 0.47665C0.188939 0.49326 0.178262 0.510315 0.167584 0.527518C0.165587 0.530735 0.163574 0.533943 0.161561 0.537151C0.154758 0.547995 0.14796 0.558831 0.141779 0.569933C0.134062 0.583653 0.127153 0.597678 0.120218 0.611755C0.118757 0.61472 0.117296 0.617686 0.115825 0.620653C0.114284 0.623766 0.11273 0.626878 0.111176 0.629993C0.104953 0.642462 0.098712 0.654969 0.0931349 0.667666C0.0865251 0.682909 0.0806512 0.698643 0.0748442 0.714198C0.0742668 0.715744 0.0736901 0.717289 0.0731134 0.718831C0.0721524 0.721357 0.0711881 0.723879 0.0702244 0.726399C0.0647935 0.740602 0.059385 0.754747 0.0547247 0.769106C0.0503862 0.78259 0.0466963 0.79626 0.0429958 0.809969C0.042016 0.813599 0.0410355 0.817231 0.0400419 0.820864C0.0389441 0.824981 0.0378305 0.829089 0.0367175 0.833196C0.0330191 0.846841 0.0293278 0.86046 0.0262499 0.874254C0.0235634 0.886397 0.0214998 0.898696 0.0194385 0.910981C0.018655 0.91565 0.0178719 0.920318 0.017055 0.924974C0.0137923 0.944254 0.0105296 0.963533 0.00815678 0.982813C0.00665057 0.995326 0.00577782 1.00802 0.00490233 1.02075C0.00465719 1.02432 0.00441183 1.02789 0.0041523 1.03146C0.00266925 1.05222 0.00133421 1.07298 0.0010376 1.09389C0.000971567 1.0966 0.000788045 1.09928 0.000604744 1.10195C0.000376349 1.10529 0.000148296 1.10861 0.000148296 1.11199C0.000148296 3.74992 0.00392812 6.38784 0.00770793 9.02575C0.0152839 14.313 0.0228599 19.6002 0 24.8874C0 25.5018 0.497858 25.9997 1.11228 25.9997H36.1492C36.1858 25.9997 36.2224 25.9977 36.2589 25.9942C36.276 25.9926 36.2924 25.9893 36.3092 25.9869C36.3133 25.9863 36.3175 25.9858 36.3216 25.9852C36.3366 25.9832 36.3515 25.9812 36.3664 25.9783C36.3821 25.9752 36.3975 25.9712 36.4129 25.9671ZM25.2952 12.4605L35.0371 22.2022V2.22473H4.04665L18.6463 15.1506L31.1604 4.53353C31.6292 4.13593 32.331 4.19377 32.7281 4.66196C33.1256 5.13046 33.068 5.83223 32.5997 6.22969L25.276 12.4432L25.284 12.4503C25.2878 12.4536 25.2916 12.4569 25.2952 12.4605ZM12.1138 12.3378L2.22473 3.58231L2.22458 22.2021L11.9662 12.4604C12.0125 12.4143 12.0622 12.3741 12.1138 12.3378ZM13.7334 13.772L17.8935 17.4551C18.1038 17.6413 18.3672 17.7347 18.6309 17.7347C18.8869 17.7347 19.1427 17.6468 19.3506 17.4706L23.5902 13.8736C23.6287 13.9299 23.6722 13.9838 23.7222 14.0338L33.4638 23.7754H3.79779L13.7334 13.772Z" fill="#73BF45"/>
</svg>
